<svg xmlns="http://www.w3.org/2000/svg" width="25.887" height="16" viewBox="0 0 25.887 16">
  <g id="Mastercard" transform="translate(-17.915 -17.999)">
    <g id="Group_7" data-name="Group 7" transform="translate(17.915 17.999)">
      <rect id="Rectangle_8" data-name="Rectangle 8" width="7" height="12.579" transform="translate(9.444 1.71)" fill="#ff5f00"/>
      <path id="Path_1" data-name="Path 1" d="M347.6,278a7.986,7.986,0,0,1,3.055-6.289,8,8,0,1,0,0,12.579A7.986,7.986,0,0,1,347.6,278Z" transform="translate(-337.711 -269.999)" fill="#eb001b"/>
      <path id="Path_2" data-name="Path 2" d="M408.9,278a8,8,0,0,1-12.943,6.289,8,8,0,0,0,0-12.579A8,8,0,0,1,408.9,278Z" transform="translate(-383.015 -270)" fill="#f79e1b"/>
      <path id="Path_3" data-name="Path 3" d="M450.207,327.221v-.258h.1v-.052h-.264v.052h.1v.258Zm.513,0v-.31h-.081l-.093.214-.093-.214h-.081v.31h.057v-.234l.087.2h.059l.087-.2v.235Z" transform="translate(-425.083 -314.264)" fill="#f79e1b"/>
    </g>
  </g>
</svg>
